<svg data-v-0dd9719b="" version="1.0" xmlns="http://www.w3.org/2000/svg" xmlns:xlink="http://www.w3.org/1999/xlink" width="100%" height="100%" viewBox="0 0 340.000000 250.000000" preserveAspectRatio="xMidYMid meet" color-interpolation-filters="sRGB" style="margin: auto;"> <rect data-v-0dd9719b="" x="0" y="0" width="100%" height="100%" fill="#ffffff" fill-opacity="1" class="background"></rect> <rect data-v-0dd9719b="" x="0" y="0" width="100%" height="100%" fill="url(#watermark)" fill-opacity="1" class="watermarklayer"></rect> <g data-v-0dd9719b="" fill="#ed632b" class="icon-text-wrapper icon-svg-group iconsvg" transform="translate(48.6800003074482,94.9999980949238)"><g class="iconsvg-imagesvg" transform="translate(0,0)"><g><rect fill="#ed632b" fill-opacity="0" stroke-width="2" x="0" y="0" width="60" height="60" class="image-rect"></rect> <svg filter="url(#colors863974919)" x="0" y="0" width="60" height="60" filtersec="colorsf2339866838" class="image-svg-svg primary" style="overflow: visible;"><svg fill="#000000" xmlns="http://www.w3.org/2000/svg" xmlns:xlink="http://www.w3.org/1999/xlink" xml:space="preserve" version="1.1" style="shape-rendering:geometricPrecision;text-rendering:geometricPrecision;image-rendering:optimizeQuality;" viewBox="0.1262054443359375 0.1262054443359375 393.44342041015625 393.44342041015625" x="0px" y="0px" fill-rule="evenodd" clip-rule="evenodd"><defs></defs><g><path class="fil0" d="M154 5c-106,24 -173,129 -149,235 24,106 129,172 235,149 106,-24 172,-129 149,-235 -24,-106 -129,-173 -235,-149zm69 44c-22,-5 -41,-3 -64,-1 25,23 43,38 54,72 7,21 8,44 4,68 -6,29 -21,54 -42,73 -32,29 -60,32 -100,35 29,26 49,44 89,52 82,16 162,-38 179,-120 16,-82 -37,-163 -120,-179z"></path></g><desc>Created with Snap</desc></svg></svg> <defs><filter id="colors863974919"><feColorMatrix type="matrix" values="0 0 0 0 0.92578125  0 0 0 0 0.38671875  0 0 0 0 0.16796875  0 0 0 1 0" class="icon-fecolormatrix"></feColorMatrix></filter> <filter id="colorsf2339866838"><feColorMatrix type="matrix" values="0 0 0 0 0.99609375  0 0 0 0 0.99609375  0 0 0 0 0.99609375  0 0 0 1 0" class="icon-fecolormatrix"></feColorMatrix></filter> <filter id="colorsb7957079290"><feColorMatrix type="matrix" values="0 0 0 0 0  0 0 0 0 0  0 0 0 0 0  0 0 0 1 0" class="icon-fecolormatrix"></feColorMatrix></filter></defs></g></g> <g transform="translate(67.00000381469727,4.098751068115234)"><g data-gra="path-name" fill-rule="" class="tp-name iconsvg-namesvg" transform="translate(0,0)"><g transform="scale(1)"><g><path d="M40.27 2.29L40.27 2.29 30.51 2.25Q29.43 2.21 29.43 1.03L29.43 1.03 29.43-1.89 26.95-1.89 26.95 0.9Q26.95 1.8 25.83 1.8L25.83 1.8 19.13 1.8Q18.18 1.8 18.13 0.85L18.13 0.85 18.13-1.89 13.09-1.89Q12.29-1.93 12.29-2.88L12.29-2.88 12.29-7.02Q12.29-8.01 13.23-8.01L13.23-8.01 18.09-8.01 18.09-9.58 13.54-9.58Q12.38-9.58 12.38-10.57L12.38-10.57 12.33-14.35Q12.33-15.3 13.37-15.3L13.37-15.3 14.13-15.3 13.54-17.59 11.21-17.59 11.21 1.03Q11.12 2.21 10.13 2.21L10.13 2.21 3.96 2.21Q2.61 2.16 2.61 0.77L2.61 0.77 2.7-22.14Q2.7-24.12 4.77-24.12L4.77-24.12 17.41-24.16 17.41-25.7 3.33-25.65Q2.16-25.65 2.16-26.73L2.16-26.73 2.16-31.99Q2.16-33.16 3.24-33.16L3.24-33.16 17.41-33.16 17.41-33.66Q17.41-34.24 18.45-34.24L18.45-34.24 26.23-34.2Q27.36-34.2 27.36-33.16L27.36-33.16 41.53-33.16Q42.75-33.16 42.75-32.04L42.75-32.04 42.8-26.77Q42.8-25.7 41.67-25.7L41.67-25.7 27.36-25.7 27.36-24.3 40.5-24.3Q42.34-24.3 42.34-22.32L42.34-22.32 42.34 0.45Q42.34 2.29 40.27 2.29ZM21.55-15.3L23.13-15.3 23.67-17.59 21.02-17.59 21.55-15.3ZM32.85-5.63L34.29-5.63 34.29-17.59 31.14-17.59 30.6-15.3 31.86-15.3Q32.8-15.3 32.8-14.4L32.8-14.4 32.89-10.66Q32.89-9.67 31.86-9.58L31.86-9.58 26.95-9.58 26.95-8.01 31.68-8.01Q32.76-8.01 32.8-7.02L32.8-7.02 32.85-5.63ZM86.44-25.65L86.44-25.65 48.42-25.65Q47.34-25.65 47.34-27L47.34-27 47.34-31.5Q47.34-32.89 48.24-32.89L48.24-32.89 62.33-32.89 62.33-33.3Q62.33-34.24 63.67-34.24L63.67-34.24 72.58-34.2Q73.66-34.2 73.66-32.89L73.66-32.89 86.27-32.89Q87.84-32.89 87.84-31.5L87.84-31.5 87.88-27Q87.88-25.65 86.44-25.65ZM58.09-15.97L77.81-15.97 77.81-18.18 58.09-18.18 58.09-15.97ZM70.88 2.61L70.88 2.61 61.52 2.61Q60.25 2.61 60.25 1.21L60.25 1.21 60.21-3.6Q60.21-4.95 61.56-4.95L61.56-4.95 62.64-4.95 62.64-9.27 49.91-9.27Q48.47-9.27 48.47-11.25L48.47-11.25 48.47-22.68Q48.47-24.61 50.09-24.61L50.09-24.61 85.05-24.61Q87.25-24.61 87.25-23.04L87.25-23.04 87.25-11.21Q87.25-9.27 85-9.27L85-9.27 73.31-9.27 73.08 0.45Q72.99 2.61 70.88 2.61ZM86.49 1.93L86.49 1.93 80.55 1.93Q79.47 1.93 79.02 1.21L79.02 1.21 75.42-4.09Q75.02-4.77 75.02-5.71L75.02-5.71 75.02-6.93Q75.02-8.28 76.95-8.32L76.95-8.32 82.31-8.32Q83.38-8.23 84.1-7.51L84.1-7.51 87.21-3.6Q87.7-2.75 87.7-1.67L87.7-1.67 87.7 0.32Q87.7 1.08 87.37 1.48 87.03 1.89 86.49 1.93ZM54.27 1.89L54.27 1.89 48.38 1.89Q47.16 1.84 47.16 0.85L47.16 0.85 47.12-1.26Q47.12-1.8 47.66-3.01L47.66-3.01 50.17-7.06Q50.72-8.19 51.75-8.19L51.75-8.19 58.5-8.19Q59.53-8.1 59.53-7.25L59.53-7.25 59.53-6.39Q59.53-5.58 59.31-5.04L59.31-5.04 56.12 1.03Q55.26 1.89 54.27 1.89ZM102.64-14.76L121.68-14.76 121.68-17.82 102.64-17.82 102.64-14.76ZM130.14-8.73L94.55-8.73Q92.52-8.78 92.52-10.89L92.52-10.89 92.39-21.51Q92.3-23.67 94.41-23.67L94.41-23.67 103.09-23.67 103.09-32.8Q103.09-34.16 104.49-34.16L104.49-34.16 112.5-34.11Q113.63-34.11 113.63-32.89L113.63-32.89 113.63-31.95 131.44-31.95Q132.66-31.95 132.66-30.87L132.66-30.87 132.66-26.95Q132.66-25.83 131.58-25.83L131.58-25.83 113.63-25.83 113.63-23.67 130-23.63Q131.81-23.63 131.81-21.51L131.81-21.51 131.81-10.8Q131.81-8.73 130.14-8.73L130.14-8.73ZM131.81 2.21L131.81 2.21 126.22 2.21Q125.01 2.11 124.97 1.71L124.97 1.71 123.62-3.78Q123.44-4.37 123.44-5.35L123.44-5.35 123.48-6.93Q123.48-7.29 123.97-7.38L123.97-7.38 130-7.38Q130.55-7.33 130.91-6.79L130.91-6.79 132.3-2.29Q132.57-1.53 132.57-0.54L132.57-0.54 132.57 1.4Q132.57 2.11 131.81 2.21ZM121.72 2.25L121.72 2.25 115.33 2.25Q114.93 2.16 114.88 1.71L114.88 1.71 113.53-3.78Q113.36-4.37 113.36-5.31L113.36-5.31 113.4-6.88Q113.4-7.25 113.89-7.33L113.89-7.33 119.92-7.33Q120.56-7.25 120.83-6.75L120.83-6.75 122.27-2.16Q122.49-1.62 122.49-0.85L122.49-0.85 122.49 1.4Q122.49 2.16 121.72 2.25ZM111.28 2.16L111.28 2.16 105.3 2.16Q104.49 2.07 104.44 1.62L104.44 1.62 103.14-3.65Q103.05-4.05 102.96-4.48 102.87-4.91 102.91-5.35L102.91-5.35 102.96-6.88Q102.96-7.25 103.45-7.33L103.45-7.33 109.48-7.33Q110.2-7.25 110.38-6.79L110.38-6.79Q112.05-1.8 112.05-1.35L112.05-1.35 112.05 1.3Q112.05 2.07 111.28 2.16ZM99.27 2.16L99.27 2.16 93.11 2.16Q92.3 2.11 92.3 1.71L92.3 1.71 92.3-0.58Q92.3-1.4 92.56-2.29L92.56-2.29 94.05-6.71Q94.14-7.2 94.91-7.2L94.91-7.2 101.16-7.2Q101.7-7.11 101.7-6.84L101.7-6.84 101.75-5.26Q101.75-4.37 101.47-3.42L101.47-3.42 100.17 1.67Q100.13 2.07 99.27 2.16ZM147.56-20.84L166.86-20.84 166.86-22.14 147.56-22.14 147.56-20.84ZM176.31-27.81L176.31-27.81 138.24-27.81Q137.16-27.81 137.16-29.38L137.16-29.38 137.16-31.59Q137.16-33.25 138.15-33.25L138.15-33.25 151.69-33.21 151.69-33.52Q151.69-34.24 152.59-34.24L152.59-34.24 162-34.2Q163.08-34.2 163.08-33.7L163.08-33.7 163.08-33.21 176.58-33.21Q177.66-33.21 177.75-31.59L177.75-31.59 177.8-29.38Q177.8-27.81 176.31-27.81ZM176.35 2.25L176.35 2.25 160.83 2.25Q159.25 2.25 159.25 0.67L159.25 0.67 159.25-2.25 152.5-2.25Q152.5-1.75 151.92-1.17L151.92-1.17 147.19 1.8Q146.16 2.25 145.4 2.25L145.4 2.25 138.38 2.25Q137.25 2.25 137.25 1.03L137.25 1.03 137.21-2.07Q137.29-3.1 137.93-3.51L137.93-3.51 142.88-5.94 142.88-7.11 138.51-7.06Q137.38-7.11 137.38-8.41L137.38-8.41 137.29-13.95Q137.38-15.39 138.69-15.39L138.69-15.39 176.44-15.39Q177.53-15.39 177.53-13.81L177.53-13.81 177.53-8.37Q177.53-6.97 176.18-6.97L176.18-6.97 169.65-6.97Q168.53-6.97 168.53-7.96L168.53-7.96 168.53-9.95 146.47-9.95 146.47-8.55 167.35-8.55Q168.34-8.28 168.34-7.38L168.34-7.38 168.34-6.08 176.53-6.08Q177.7-5.98 177.7-4.86L177.7-4.86 177.75 1.08Q177.75 2.21 176.35 2.25ZM174.91-16.25L174.91-16.25 139.41-16.25Q137.97-16.25 137.93-17.77L137.93-17.77 137.93-25.38Q137.93-26.86 139.68-26.86L139.68-26.86 174.96-26.82Q176.72-26.82 176.72-25.33L176.72-25.33 176.72-17.73Q176.72-16.25 174.91-16.25Z" transform="translate(-2.1600000858306885, 34.2400016784668)"></path></g> <!----> <!----> <!----> <!----> <!----> <!----> <!----></g></g> <g data-gra="path-slogan" fill-rule="" class="tp-slogan iconsvg-slogansvg" fill="#ed632b" transform="translate(29.05999755859375,42.85000228881836)"><!----> <!----> <g transform="scale(1, 1)"><g transform="scale(1)"><path d="M2.30-8.58L6.61-1.64L6.61-8.58L7.73-8.58L7.73 0L6.42 0L2.06-6.94L2.02-6.94L2.02 0L0.89 0L0.89-8.58L2.30-8.58ZM15.19 0L14.34-2.48L10.88-2.48L9.98 0L8.81 0L12.05-8.58L13.36-8.58L16.45 0L15.19 0ZM12.61-7.31L11.25-3.52L13.92-3.52L12.66-7.31L12.61-7.31ZM18.89-8.58L23.20-1.64L23.20-8.58L24.33-8.58L24.33 0L23.02 0L18.66-6.94L18.61-6.94L18.61 0L17.48 0L17.48-8.58L18.89-8.58ZM25.41-1.92L25.41-2.77L26.48-2.77L26.48-2.16Q26.48-0.75 27.80-0.75L27.80-0.75Q29.16-0.75 29.16-2.25L29.16-2.25L29.16-8.58L30.33-8.58L30.33-2.30Q30.28 0.09 27.84 0.14L27.84 0.14Q25.55 0.09 25.41-1.92L25.41-1.92ZM32.30-8.58L33.47-8.58L33.47 0L32.30 0L32.30-8.58ZM36.84-8.58L41.16-1.64L41.16-8.58L42.28-8.58L42.28 0L40.97 0L36.61-6.94L36.56-6.94L36.56 0L35.44 0L35.44-8.58L36.84-8.58ZM50.48-3.61L47.86-3.61L47.86-4.59L51.61-4.59L51.61 0L50.86 0L50.58-1.08Q49.59 0.09 47.77 0.14L47.77 0.14Q46.03 0.14 45.09-0.75L45.09-0.75Q43.69-2.06 43.73-4.36L43.73-4.36Q44.06-8.63 47.81-8.81L47.81-8.81Q51-8.63 51.47-6L51.47-6L50.34-6Q49.88-7.78 47.77-7.83L47.77-7.83Q45.09-7.64 44.95-4.31L44.95-4.31Q44.95-0.75 47.81-0.75L47.81-0.75Q48.84-0.75 49.59-1.31L49.59-1.31Q50.53-2.06 50.48-3.61L50.48-3.61ZM56.72-8.58L57.89-8.58L57.89-1.03L62.25-1.03L62.25 0L56.72 0L56.72-8.58ZM63.56-8.58L64.73-8.58L64.73 0L63.56 0L63.56-8.58ZM73.13-3.61L70.50-3.61L70.50-4.59L74.25-4.59L74.25 0L73.50 0L73.22-1.08Q72.23 0.09 70.41 0.14L70.41 0.14Q68.67 0.14 67.73-0.75L67.73-0.75Q66.33-2.06 66.38-4.36L66.38-4.36Q66.70-8.63 70.45-8.81L70.45-8.81Q73.64-8.63 74.11-6L74.11-6L72.98-6Q72.52-7.78 70.41-7.83L70.41-7.83Q67.73-7.64 67.59-4.31L67.59-4.31Q67.59-0.75 70.45-0.75L70.45-0.75Q71.48-0.75 72.23-1.31L72.23-1.31Q73.17-2.06 73.13-3.61L73.13-3.61ZM77.20-5.06L81.70-5.06L81.70-8.58L82.88-8.58L82.88 0L81.70 0L81.70-3.98L77.20-3.98L77.20 0L76.03 0L76.03-8.58L77.20-8.58L77.20-5.06ZM86.86-7.59L83.95-7.59L83.95-8.58L90.89-8.58L90.89-7.59L87.98-7.59L87.98 0L86.86 0L86.86-7.59ZM98.20-6.09L98.20-6.09L97.13-6.09Q97.03-7.73 94.97-7.83L94.97-7.83Q93.05-7.78 93.05-6.33L93.05-6.33Q93.05-5.39 94.08-5.25L94.08-5.25L96.52-4.69Q98.44-4.22 98.44-2.34L98.44-2.34Q98.39 0.05 95.06 0.14L95.06 0.14Q93.23 0.14 92.48-0.61L92.48-0.61Q91.55-1.31 91.59-2.77L91.59-2.77L92.72-2.77Q92.77-0.80 95.06-0.75L95.06-0.75Q97.31-0.80 97.36-2.20L97.36-2.20Q97.55-3.38 95.48-3.75L95.48-3.75L93.70-4.13Q91.88-4.64 91.88-6.19L91.88-6.19Q92.02-8.72 94.88-8.81L94.88-8.81Q98.11-8.81 98.20-6.09ZM108.89-3.19L108.89-8.58L110.06-8.58L110.06-3.05Q109.92 0.05 106.55 0.14L106.55 0.14Q103.41 0.05 103.27-2.86L103.27-2.86L103.27-8.58L104.44-8.58L104.44-3.19Q104.48-0.84 106.59-0.80L106.59-0.80Q108.89-0.84 108.89-3.19L108.89-3.19ZM115.50-7.64L113.16-7.64L113.16-4.64L115.45-4.64Q117.23-4.64 117.23-6.19L117.23-6.19Q117.23-7.59 115.50-7.64L115.50-7.64ZM115.88-3.61L113.16-3.61L113.16 0L111.98 0L111.98-8.58L115.88-8.58Q118.31-8.48 118.41-6.19L118.41-6.19Q118.27-3.70 115.88-3.61L115.88-3.61Z" transform="translate(-0.890625, 8.8125)"></path></g></g></g></g></g><defs v-gra="od"></defs></svg>